# xmcd
#
# Track frame offsets:
#	150
#	18443
#	35545
#	59020
#	76495
#	96346
#	114007
#	132007
#	149622
#	169196
#	186502
#
# Disc length: 2922 seconds
#
# Revision: 2881395774
# Processed by: cddbd v1.5.2PL0 Copyright (c) Steve Scherf et al.
# Submitted via: EZCDAudioConverter 8.0.2.1
#
DISCID=990b680b
DTITLE=Nam Cường - Vol 04. I Have A Dream
DYEAR=2012
DGENRE=World Pop
TTITLE0=Sexy Girl
TTITLE1=Tìm trong kỷ niệm
TTITLE2=Hết
TTITLE3=Khi mà em đi
TTITLE4=Điều còn lại
TTITLE5=Không thể quay lại
TTITLE6=Điều tốt nhất cho em
TTITLE7=Lonely
TTITLE8=Với anh em vẫn là cô bé
TTITLE9=Cảm ơn em
TTITLE10=LK Phải là anh
EXTD=
EXTT0=
EXTT1=
EXTT2=
EXTT3=
EXTT4=
EXTT5=
EXTT6=
EXTT7=
EXTT8=
EXTT9=
EXTT10=
PLAYORDER=
